<?xml version="1.0" encoding="utf-8"?>
<!-- Generator: Adobe Illustrator 22.0.1, SVG Export Plug-In . SVG Version: 6.00 Build 0)  -->
<svg version="1.1" id="Layer_1" xmlns="http://www.w3.org/2000/svg" xmlns:xlink="http://www.w3.org/1999/xlink" x="0px" y="0px"
	 viewBox="0 0 72 72" style="enable-background:new 0 0 72 72;" xml:space="preserve">
<style type="text/css">
	.st0{clip-path:url(#SVGID_2_);}
	.st1{fill:#25D366;}
	.st2{fill:#FFFFFF;}
</style>
<g>
	<defs>
		<rect id="SVGID_1_" width="72" height="72"/>
	</defs>
	<clipPath id="SVGID_2_">
		<use xlink:href="#SVGID_1_"  style="overflow:visible;"/>
	</clipPath>
	<g class="st0">
		<g>
			<path class="st1" d="M70.9,72H1.1C0.5,72,0,71.4,0,70.7V1.3C0,0.6,0.5,0,1.1,0h69.8C71.5,0,72,0.6,72,1.3v69.3
				C72,71.4,71.5,72,70.9,72z"/>
		</g>
		<g>
			<path class="st2" d="M45.8,40.5c-0.5-0.3-3.1-1.5-3.6-1.7c-0.5-0.2-0.8-0.3-1.2,0.3c-0.4,0.5-1.4,1.7-1.7,2.1
				c-0.3,0.4-0.6,0.4-1.1,0.1c-0.5-0.3-2.2-0.8-4.3-2.6c-1.6-1.4-2.6-3.1-2.9-3.7c-0.3-0.5,0-0.8,0.2-1.1c0.2-0.2,0.5-0.6,0.8-0.9
				c0.3-0.3,0.4-0.5,0.5-0.9c0.2-0.4,0.1-0.7,0-0.9c-0.1-0.3-1.2-2.9-1.6-3.9c-0.4-1-0.9-0.9-1.2-0.9c-0.3,0-0.7,0-1,0
				c-0.4,0-0.9,0.1-1.4,0.7c-0.5,0.5-1.9,1.8-1.9,4.4c0,2.6,1.9,5.1,2.2,5.5c0.3,0.4,3.7,5.7,9.1,8c1.3,0.5,2.3,0.9,3,1.1
				c1.3,0.4,2.4,0.3,3.3,0.2c1-0.2,3.1-1.3,3.6-2.5c0.4-1.2,0.4-2.3,0.3-2.5C46.7,40.9,46.3,40.8,45.8,40.5z M36.1,53.7L36.1,53.7
				c-3.2,0-6.3-0.9-9-2.5l-0.6-0.4l-6.7,1.8l1.8-6.5l-0.4-0.7c-1.8-2.8-2.7-6.1-2.7-9.4c0-9.7,7.9-17.6,17.6-17.6
				c4.7,0,9.1,1.8,12.5,5.2c3.3,3.3,5.2,7.8,5.2,12.5C53.7,45.8,45.8,53.7,36.1,53.7z M51.1,21.1c-4-4-9.3-6.2-15-6.2
				c-11.7,0-21.2,9.5-21.2,21.2c0,3.7,1,7.4,2.8,10.6l-3,11L26,54.7c3.1,1.7,6.6,2.6,10.1,2.6h0h0c11.7,0,21.2-9.5,21.2-21.2
				C57.3,30.4,55.1,25.1,51.1,21.1"/>
		</g>
	</g>
</g>
</svg>
